<svg viewBox="0 0 139.86 23.18" xmlns="http://www.w3.org/2000/svg"><g fill="#fff"><path d="m0 4.73h3.04v1.7c1.09-1.32 2.38-1.98 3.88-1.98.8 0 1.49.16 2.07.49s1.07.82 1.44 1.49c.55-.66 1.14-1.16 1.77-1.49s1.31-.49 2.03-.49c.91 0 1.69.19 2.32.56s1.11.92 1.42 1.63c.23.53.34 1.39.34 2.58v7.96h-3.29v-7.11c0-1.23-.11-2.03-.34-2.39-.3-.47-.77-.7-1.41-.7-.46 0-.89.14-1.3.42s-.7.69-.88 1.24-.27 1.4-.27 2.57v5.98h-3.29v-6.82c0-1.21-.06-1.99-.18-2.34s-.3-.61-.54-.79-.58-.26-1-.26c-.51 0-.96.14-1.37.41s-.7.67-.87 1.18-.26 1.37-.26 2.57v6.05h-3.31z"/><path d="m24.05 8.53-2.99-.54c.34-1.2.91-2.09 1.73-2.67s2.04-.87 3.66-.87c1.47 0 2.56.17 3.28.52s1.22.79 1.52 1.32.44 1.52.44 2.95l-.04 3.84c0 1.09.05 1.9.16 2.42s.3 1.08.59 1.67h-3.26c-.09-.22-.19-.54-.32-.97-.05-.2-.09-.32-.12-.39-.56.55-1.16.96-1.8 1.23s-1.32.41-2.05.41c-1.28 0-2.29-.35-3.03-1.04s-1.11-1.57-1.11-2.64c0-.7.17-1.33.5-1.88s.81-.97 1.41-1.27 1.48-.55 2.62-.77c1.54-.29 2.61-.56 3.2-.81v-.33c0-.63-.16-1.08-.47-1.35s-.9-.4-1.77-.4c-.59 0-1.04.12-1.37.35s-.59.63-.8 1.21zm4.4 2.67c-.42.14-1.09.31-2 .5s-1.51.39-1.79.57c-.43.3-.64.69-.64 1.16s.17.86.52 1.2.78.5 1.31.5c.59 0 1.16-.2 1.7-.59.4-.3.66-.66.79-1.09.09-.28.13-.82.13-1.61v-.66z"/><path d="m38.09 17.18h-3.29v-12.45h3.06v1.77c.52-.84.99-1.39 1.41-1.65s.89-.4 1.42-.4c.75 0 1.47.21 2.17.62l-1.02 2.87c-.55-.36-1.07-.54-1.55-.54s-.85.13-1.17.38-.57.71-.76 1.38-.28 2.05-.28 4.17v3.84z"/><path d="m49.98 4.73v2.62h-2.25v5.02c0 1.02.02 1.61.06 1.78s.14.31.29.42.34.16.56.16c.3 0 .75-.11 1.32-.32l.28 2.55c-.77.33-1.63.49-2.6.49-.59 0-1.13-.1-1.61-.3s-.83-.46-1.05-.77-.38-.74-.46-1.28c-.07-.38-.11-1.16-.11-2.32v-5.43h-1.51v-2.62h1.51v-2.47l3.3-1.92v4.39h2.25z"/><path d="m54.73 8.53-2.99-.54c.34-1.2.91-2.09 1.73-2.67s2.04-.87 3.66-.87c1.47 0 2.56.17 3.28.52s1.22.79 1.52 1.32.44 1.52.44 2.95l-.04 3.84c0 1.09.05 1.9.16 2.42s.3 1.08.59 1.67h-3.26c-.09-.22-.19-.54-.32-.97-.05-.2-.09-.32-.12-.39-.56.55-1.16.96-1.8 1.23s-1.32.41-2.05.41c-1.28 0-2.29-.35-3.03-1.04s-1.11-1.57-1.11-2.64c0-.7.17-1.33.5-1.88s.81-.97 1.41-1.27 1.48-.55 2.62-.77c1.54-.29 2.61-.56 3.2-.81v-.33c0-.63-.16-1.08-.47-1.35s-.9-.4-1.77-.4c-.59 0-1.04.12-1.37.35s-.59.63-.8 1.21zm4.4 2.67c-.42.14-1.09.31-2 .5s-1.51.39-1.79.57c-.43.3-.64.69-.64 1.16s.17.86.52 1.2.78.5 1.31.5c.59 0 1.16-.2 1.7-.59.4-.3.66-.66.79-1.09.09-.28.13-.82.13-1.61v-.66z"/><path d="m77.03 17.18h-3.06v-1.83c-.51.71-1.11 1.24-1.8 1.59s-1.39.52-2.09.52c-1.43 0-2.65-.58-3.67-1.73s-1.53-2.76-1.53-4.82.5-3.71 1.49-4.81 2.25-1.65 3.76-1.65c1.39 0 2.59.58 3.61 1.73v-6.18h3.29zm-8.79-6.49c0 1.33.18 2.29.55 2.88.53.86 1.27 1.29 2.23 1.29.76 0 1.4-.32 1.93-.97s.8-1.61.8-2.89c0-1.43-.26-2.46-.77-3.09s-1.18-.94-1.98-.94-1.44.31-1.96.93-.79 1.55-.79 2.78z"/><path d="m87.48 13.22 3.28.55c-.42 1.2-1.09 2.12-2 2.75s-2.05.94-3.42.94c-2.16 0-3.77-.71-4.8-2.12-.82-1.13-1.23-2.56-1.23-4.29 0-2.06.54-3.68 1.62-4.85s2.44-1.75 4.09-1.75c1.85 0 3.31.61 4.38 1.83s1.58 3.1 1.54 5.62h-8.25c.02.98.29 1.74.8 2.28s1.14.81 1.9.81c.52 0 .95-.14 1.3-.42s.62-.73.8-1.36zm.19-3.33c-.02-.95-.27-1.68-.74-2.17s-1.04-.74-1.71-.74c-.72 0-1.31.26-1.78.79s-.7 1.23-.69 2.13h4.92z"/><path d="m92.46 13.63 3.3-.5c.14.64.43 1.13.86 1.46s1.03.5 1.8.5c.85 0 1.49-.16 1.92-.47.29-.22.43-.51.43-.88 0-.25-.08-.46-.23-.62-.16-.16-.53-.3-1.1-.43-2.66-.59-4.34-1.12-5.05-1.61-.98-.67-1.48-1.61-1.48-2.8 0-1.08.43-1.98 1.28-2.72s2.17-1.1 3.96-1.1 2.97.28 3.8.83 1.4 1.38 1.71 2.46l-3.11.57c-.13-.48-.38-.86-.76-1.11s-.9-.39-1.59-.39c-.87 0-1.49.12-1.86.36-.25.17-.38.39-.38.67 0 .23.11.43.33.6.3.22 1.32.53 3.08.93s2.98.89 3.67 1.46c.69.59 1.03 1.4 1.03 2.45 0 1.14-.48 2.12-1.43 2.94s-2.36 1.23-4.23 1.23c-1.7 0-3.04-.34-4.03-1.03s-1.63-1.62-1.94-2.8z"/><path d="m106.97 3.05v-3.05h3.29v3.05zm0 14.13v-12.45h3.29v12.45z"/><path d="m113.33 18 3.76.46c.06.44.21.74.43.9.31.23.8.35 1.48.35.86 0 1.5-.13 1.93-.39.29-.17.51-.45.66-.83.1-.27.15-.78.15-1.51v-1.82c-.98 1.34-2.23 2.02-3.73 2.02-1.67 0-3-.71-3.97-2.12-.77-1.12-1.15-2.51-1.15-4.17 0-2.09.5-3.68 1.51-4.78s2.25-1.65 3.74-1.65 2.81.68 3.81 2.03v-1.75h3.08v11.17c0 1.47-.12 2.57-.36 3.29s-.58 1.3-1.02 1.71-1.02.74-1.75.97-1.65.35-2.77.35c-2.11 0-3.61-.36-4.49-1.08s-1.32-1.64-1.32-2.75c0-.11 0-.24.01-.4zm2.94-7.3c0 1.32.26 2.29.77 2.9s1.14.92 1.89.92c.8 0 1.48-.31 2.04-.94s.83-1.56.83-2.79-.27-2.25-.8-2.87-1.2-.94-2.02-.94-1.44.31-1.95.92-.77 1.55-.77 2.81z"/><path d="m139.62 17.18h-3.29v-6.35c0-1.34-.07-2.21-.21-2.61s-.37-.7-.69-.92-.7-.33-1.14-.33c-.57 0-1.08.16-1.54.47s-.76.73-.93 1.24-.25 1.47-.25 2.86v5.64h-3.29v-12.45h3.06v1.83c1.09-1.41 2.45-2.11 4.1-2.11.73 0 1.39.13 1.99.39s1.06.6 1.37 1 .52.87.64 1.38.18 1.25.18 2.21v7.73z"/></g></svg>